<svg xmlns="http://www.w3.org/2000/svg" viewBox="0 0 128 128">
    <!-- Background circle -->
    <circle cx="64" cy="64" r="60" fill="#24292E"/>

    <!-- GitHub cat silhouette -->
    <path d="M64 32c-17.7 0-32 14.3-32 32 0 14.1 9.2 26.1 21.9 30.4 1.6 0.3 2.2-0.7 2.2-1.5 0-0.7 0-2.7-0.1-5.3-8.9 1.9-10.8-4.3-10.8-4.3-1.5-3.7-3.6-4.7-3.6-4.7-2.9-2 0.2-1.9 0.2-1.9 3.2 0.2 4.9 3.3 4.9 3.3 2.9 4.9 7.5 3.5 9.3 2.7 0.3-2.1 1.1-3.5 2-4.3-7.1-0.8-14.6-3.6-14.6-15.8 0-3.5 1.2-6.3 3.3-8.6-0.3-0.8-1.4-4.1 0.3-8.5 0 0 2.7-0.9 8.8 3.3 2.6-0.7 5.3-1.1 8-1.1s5.4 0.4 8 1.1c6.1-4.1 8.8-3.3 8.8-3.3 1.7 4.4 0.6 7.7 0.3 8.5 2.1 2.3 3.3 5.1 3.3 8.6 0 12.3-7.5 15-14.6 15.8 1.1 1 2.2 2.9 2.2 5.9 0 4.3-0.1 7.7-0.1 8.8 0 0.9 0.6 1.8 2.2 1.5C86.8 90.1 96 78.1 96 64c0-17.7-14.3-32-32-32z" fill="#fff"/>

    <!-- Toggle elements -->
    <rect x="20" y="45" width="24" height="4" rx="2" fill="#2EA44F"/>
    <rect x="20" y="62" width="24" height="4" rx="2" fill="#2EA44F" opacity="0.6"/>
    <rect x="20" y="79" width="24" height="4" rx="2" fill="#2EA44F" opacity="0.3"/>
</svg>